<svg xmlns="http://www.w3.org/2000/svg" width="16" height="16">
    <path d="M 2 0 C 0.892 0 0 0.892 0 2 L 0 11 C 0 12.108 0.892 13 2 13 L 10 13 L 10 11 L 2 11 L 2 2 L 14 2 L 14 10 L 16 10 L 16 2 C 16 0.892 15.108 0 14 0 L 2 0 z M 4 4 L 4 9 L 12 9 L 12 4 L 4 4 z M 5 5 L 11 5 L 11 6 L 5 6 L 5 5 z M 5 7 L 9 7 L 9 8 L 5 8 L 5 7 z M 10 7 L 11 7 L 11 8 L 10 8 L 10 7 z M 11 11 L 11 16 L 16 16 L 16 11 L 11 11 z M 12 12 L 13 12 L 13 13 L 14 13 L 14 12 L 15 12 L 15 14 L 14 14 L 14 15 L 13 15 L 13 14 L 12 14 L 12 12 z M 4.9316406 14 C 4.4152665 14 4 14.415266 4 14.931641 L 4 15.068359 L 4 16 L 10 16 L 10 14 L 4.9316406 14 z " fill="#c0bfbc" />
</svg>
