<?xml version="1.0" encoding="UTF-8"?>
<svg version="1.0" viewBox="0 0 128 128" xmlns="http://www.w3.org/2000/svg" xmlns:xlink="http://www.w3.org/1999/xlink">
<path d="m32 92c-2.216 0-4 1.9822-4 4.4444v11.111c0 2.4622 1.784 4.4444 4 4.4444h64c2.216 0 4-1.9822 4-4.4444v-11.111c0-2.4622-1.784-4.4444-4-4.4444z" fill="#5e5c64" />
<path d="m32 88c-2.216 0-4 1.9822-4 4.4444v11.111c0 2.4622 1.784 4.4444 4 4.4444h64c2.216 0 4-1.9822 4-4.4444v-11.111c0-2.4622-1.784-4.4444-4-4.4444z" fill="#9a9996" />
<path d="m12 16c-2.216 0-4 1.8297-4 4.1026v71.794c0 2.2728 1.784 4.1026 4 4.1026h104c2.216 0 4-1.8297 4-4.1026v-71.794c0-2.2728-1.784-4.1026-4-4.1026z" fill="#5e5c64" />
<path d="m12 12c-2.216 0-4 1.784-4 4v72c0 2.216 1.784 4 4 4h104c2.216 0 4-1.784 4-4v-72c0-2.216-1.784-4-4-4z" fill="#9a9996" />
<rect x="12" y="16" width="104" height="72" ry="0" fill="#3d3846" />
<rect x="16" y="20" width="96" height="64" ry="0" fill="#3584e4" />
<rect x="44" y="36" width="40" height="32" ry="0" fill="#241f31"/>
<rect x="52" y="44" width="24" height="4" fill="#f6f5f4"/>
<rect x="68" y="60" width="8" height="4" fill="#33d17a"/>
<rect x="52" y="60" width="4" height="4" fill="#e01b24"/>
<path d="m16 20h72l-16 64h-56z" fill="#fff" opacity=".2" />
<rect x="52" y="52" width="24" height="4" fill="#fff"/>
</svg>
